<?xml version="1.0" encoding="UTF-8"?>
<svg width="168px" height="42px" viewBox="0 0 168 42" version="1.1" xmlns="http://www.w3.org/2000/svg" xmlns:xlink="http://www.w3.org/1999/xlink">
    <title>13168D34-63C4-4C47-BA72-33C7A7F335C4</title>
    <g id="Page-1" stroke="none" stroke-width="1" fill="none" fill-rule="evenodd">
        <g id="Safrapay-landing-VENDA-NO-CRÉDITO[V2]" transform="translate(-876.000000, -40.000000)" fill="#1E2447">
            <g id="Group-32" transform="translate(876.000000, 40.000000)">
                <path d="M106.901097,20.2027584 C106.901097,21.3441381 107.076841,22.4003401 107.429023,23.372298 C107.780511,24.3440225 108.293387,25.1925313 108.966956,25.9173575 C109.639831,26.6421837 110.443298,27.2127569 111.377357,27.6290769 C112.310722,28.0456303 113.358703,28.2540236 114.522225,28.2540236 C115.685052,28.2540236 116.733033,28.0456303 117.667092,27.6290769 C118.600457,27.2127569 119.403924,26.6421837 120.077493,25.9173575 C120.750368,25.1925313 121.263244,24.3440225 121.615426,23.372298 C121.966914,22.4003401 122.143353,21.3441381 122.143353,20.2027584 C122.143353,19.0618456 121.966914,18.0049434 121.615426,17.0329855 C121.263244,16.061261 120.750368,15.2134523 120.077493,14.4881594 C119.403924,13.7637999 118.600457,13.1925267 117.667092,12.7762067 C116.733033,12.3596533 115.685052,12.1514933 114.522225,12.1514933 C113.358703,12.1514933 112.310722,12.3596533 111.377357,12.7762067 C110.443298,13.1925267 109.639831,13.7637999 108.966956,14.4881594 C108.293387,15.2134523 107.780511,16.061261 107.429023,17.0329855 C107.076841,18.0049434 106.901097,19.0618456 106.901097,20.2027584 L106.901097,20.2027584 Z M103.319996,9.37517077 L106.901097,9.37517077 L106.901097,12.5216074 L106.992789,12.5216074 C107.972,11.3496572 109.111905,10.4395405 110.413197,9.79172415 C111.713795,9.1439078 113.144985,8.81999962 114.705841,8.81999962 C116.388723,8.81999962 117.926887,9.10563622 119.319872,9.67597599 C120.712394,10.2472492 121.898145,11.0409176 122.87805,12.0590814 C123.857261,13.0767785 124.622523,14.2799994 125.173604,15.6680439 C125.724454,17.0563219 125.999995,18.5680489 125.999995,20.2027584 C125.999995,21.838168 125.724454,23.3489617 125.173604,24.7372396 C124.622523,26.1252842 123.865134,27.328505 122.900974,28.3462021 C121.936813,29.3643659 120.796214,30.1592011 119.480797,30.7295409 C118.164223,31.2996473 116.756187,31.5852839 115.256691,31.5852839 C113.328601,31.5852839 111.636921,31.1612629 110.183734,30.3129875 C108.729621,29.4647121 107.665895,28.4236787 106.992789,27.1896539 L106.901097,27.1896539 L106.901097,41.5799982 L103.319996,41.5799982 L103.319996,9.37517077 Z" id="Fill-1"></path>
                <path d="M157.101836,35.4259761 C156.730981,36.3514948 156.351943,37.1913691 155.965889,37.9476993 C155.579135,38.7033295 155.11545,39.3509125 154.575068,39.8911484 C154.033752,40.4304509 153.38464,40.8470042 152.627732,41.1405752 C151.869889,41.4332127 150.950703,41.5799982 149.869005,41.5799982 C149.343122,41.5799982 148.79479,41.5489609 148.22331,41.4875863 C147.650894,41.4255117 147.117761,41.2712586 146.623445,41.024827 L147.08713,37.8783905 C147.458218,38.0324102 147.844271,38.1329897 148.246459,38.1791957 C148.647711,38.2254016 149.111396,38.2487379 149.63728,38.2487379 C150.811574,38.2487379 151.677213,37.9245964 152.233495,37.2770134 C152.79001,36.629197 153.26866,35.7650529 153.670848,34.6857479 L155.154499,30.6137927 L146.159994,8.81999962 L150.379223,8.81999962 L157.101836,25.8016093 L157.194432,25.8016093 L163.639255,8.81999962 L167.579993,8.81999962 L157.101836,35.4259761 Z" id="Fill-3"></path>
                <path d="M6.91948058,24.3398262 C7.28271,25.0709077 7.76498668,25.6628479 8.36608515,26.1158826 C8.96695816,26.5696248 9.67222298,26.9052148 10.4834579,27.1247751 C11.2937909,27.3438637 12.132533,27.4535259 12.9992331,27.4535259 C13.5861271,27.4535259 14.2151836,27.4025861 14.8859518,27.2999988 C15.55672,27.1978832 16.185551,27.0004912 16.7726705,26.7080586 C17.3595645,26.4160977 17.8483797,26.0140028 18.2402436,25.5020099 C18.6312056,24.9909604 18.8271376,24.3398262 18.8271376,23.5502581 C18.8271376,22.7029111 18.5683,22.0156944 18.0513012,21.4890799 C17.5338514,20.9629371 16.8563192,20.5242882 16.0180281,20.173369 C15.1795115,19.8226857 14.2287117,19.5156315 13.1667561,19.252678 C12.1043495,18.9894886 11.0286402,18.6975277 9.93850103,18.3753802 C8.8201783,18.0834192 7.7300391,17.7251893 6.6683089,17.3009262 C5.60567683,16.8776064 4.65555344,16.3292952 3.81726233,15.6564644 C2.97852027,14.9843411 2.30031164,14.1433615 1.78353832,13.1347049 C1.26586311,12.1260482 1.00770192,10.9056137 1.00770192,9.47269396 C1.00770192,7.86525795 1.33598375,6.46889225 1.99299836,5.2845402 C2.64956203,4.10065981 3.50927264,3.11369976 4.57145377,2.32436756 C5.6336349,1.53503535 6.83583184,0.950405971 8.17736819,0.57000775 C9.51890454,0.19055286 10.8608918,-7.10542736e-14 12.2024282,-7.10542736e-14 C13.7676291,-7.10542736e-14 15.2699243,0.183006212 16.7097648,0.548311137 C18.148929,0.914087728 19.4280106,1.50626376 20.5463333,2.32436756 C21.6639797,3.14341469 22.5516483,4.18815376 23.2086629,5.45999976 C23.8647757,6.73160994 24.1937339,8.27419193 24.1937339,10.0868024 L17.8206471,10.0868024 C17.7645055,9.15125392 17.5757885,8.37630751 17.2549472,7.76243487 C16.9329784,7.14856223 16.5068434,6.66604843 15.9758655,6.3151293 C15.4448877,5.96444601 14.8365742,5.71634996 14.152278,5.56966199 C13.4668544,5.42368152 12.719427,5.35057337 11.9088685,5.35057337 C11.3776652,5.35057337 10.8462364,5.40953155 10.3157095,5.5257971 C9.78473166,5.64300597 9.30245498,5.8477088 8.86910492,6.13966974 C8.43575486,6.43233818 8.07928948,6.7976431 7.80015974,7.23605618 C7.52035358,7.67470509 7.38101418,8.23056288 7.38101418,8.90268621 C7.38101418,9.51679468 7.49239551,10.0141659 7.71628553,10.3938567 C7.93949914,10.7740191 8.38006419,11.1249382 9.03730426,11.4463782 C9.693417,11.7682899 10.6020542,12.08973 11.7623141,12.41117 C12.9218975,12.7330817 14.4383972,13.1422515 16.3115878,13.6389153 C16.8702983,13.7561241 17.6456837,13.9679019 18.6384206,14.2749562 C19.6302556,14.5820104 20.6155521,15.071835 21.5940845,15.7441942 C22.5726169,16.417025 23.4183484,17.3160195 24.1310537,18.4411775 C24.843759,19.567043 25.1999989,21.006802 25.1999989,22.7611618 C25.1999989,24.1938457 24.9341718,25.5239424 24.403194,26.7519235 C23.8719907,27.9799046 23.0828516,29.0399728 22.0344241,29.9311848 C20.9864474,30.8235759 19.6866227,31.5178675 18.1354009,32.0142954 C16.584179,32.511195 14.7876476,32.7599986 12.7476105,32.7599986 C11.097859,32.7599986 9.49838692,32.5475133 7.94693959,32.1239577 C6.39571773,31.7006379 5.02577238,31.0353537 3.83800541,30.1285768 C2.64956203,29.2227432 1.70620269,28.0676344 1.00770192,26.6639579 C0.308975674,25.260753 -0.0267466155,23.5943589 0.00166238951,21.6645395 L6.37452371,21.6645395 C6.37452371,22.717061 6.55602569,23.6092163 6.91948058,24.3398262" id="Fill-5"></path>
                <path d="M38.7274507,8.81999962 C39.8324697,8.81999962 40.9512014,8.90117061 42.0847887,9.06209268 C43.2176903,9.22372471 44.2523171,9.53941597 45.1872981,10.0084565 C46.122279,10.4779703 46.8872218,11.1304147 47.4825836,11.9667362 C48.0772598,12.8028211 48.3748265,13.9105802 48.3748265,15.2890672 L48.3748265,27.1272525 C48.3748265,28.1545507 48.4312773,29.137122 48.5448646,30.0756763 C48.6579947,31.0149406 48.8563725,31.7189747 49.1399979,32.1880152 L43.0197696,32.1880152 C42.9064109,31.8361165 42.8140784,31.4768816 42.7439148,31.1098373 C42.6726085,30.7432663 42.6230141,30.3691225 42.5949029,29.9876425 C41.6315823,31.0149406 40.4979951,31.7334104 39.1948269,32.1437617 C37.8914301,32.5545863 36.5599222,32.7599986 35.2000747,32.7599986 C34.1515065,32.7599986 33.174016,32.6279478 32.2673748,32.3640829 C31.360505,32.0999814 30.5674511,31.6893935 29.8875273,31.1318458 C29.2076035,30.5747714 28.6762345,29.8707373 28.2938773,29.0192702 C27.9115202,28.1687497 27.7199988,27.1568338 27.7199988,25.9830492 C27.7199988,24.6921228 27.9391742,23.6286172 28.3788964,22.7925324 C28.8177043,21.9564475 29.3840408,21.2893308 30.0785916,20.7899991 C30.7726852,20.291614 31.5661963,19.9174701 32.4588962,19.6678042 C33.3513676,19.419085 34.2504668,19.2210088 35.1573366,19.0738125 C36.0639778,18.927326 36.9564492,18.8097109 37.8349793,18.7219137 C38.7128238,18.6336432 39.4923935,18.5018291 40.1723173,18.3257614 C40.8522411,18.1496938 41.3904665,17.893165 41.7874506,17.5554653 C42.183749,17.2187122 42.3679569,16.7269533 42.3398458,16.0813718 C42.3398458,15.4069189 42.2338005,14.8711431 42.0212529,14.4749908 C41.8089339,14.0788385 41.5253085,13.7709567 41.1712911,13.5508721 C40.816588,13.3307875 40.4061197,13.184301 39.9387435,13.1109395 C39.4711388,13.0378146 38.9678809,13.0008972 38.4301126,13.0008972 C37.2403031,13.0008972 36.3048651,13.2647621 35.6249413,13.7929651 C34.9450175,14.3209315 34.5478049,15.20127 34.4349033,16.4332705 L28.3999226,16.4332705 C28.4849416,14.9665131 28.8389591,13.7489482 29.4624321,12.7808126 C30.0854479,11.812677 30.878959,11.035518 31.8425081,10.4483891 C32.8056002,9.86197007 33.8891359,9.44357267 35.0938008,9.19414345 C36.2977802,8.94542418 37.509073,8.81999962 38.7274507,8.81999962 Z M42.3398458,21.0541006 C42.0847887,21.2893308 41.7664244,21.4722614 41.3836101,21.6043121 C41.001253,21.7363629 40.5903276,21.8464052 40.1510626,21.9344391 C39.711569,22.0222362 39.2512777,22.0958344 38.7699602,22.1540504 C38.2879571,22.2134495 37.8066396,22.2863378 37.3248651,22.3743716 C36.8712016,22.4624055 36.4250802,22.5797839 35.9862722,22.7262703 C35.5465501,22.8734667 35.164193,23.0715429 34.8389723,23.3204988 C34.5126088,23.5701646 34.2504668,23.8858559 34.0525461,24.2666259 C33.8539398,24.6483426 33.7549795,25.1322921 33.7549795,25.7189477 C33.7549795,26.2764954 33.8539398,26.7462458 34.0525461,27.1272525 C34.2504668,27.5087325 34.5201509,27.8092782 34.860227,28.0293628 C35.2000747,28.2494474 35.5966016,28.4035066 36.0500365,28.4915404 C36.5027858,28.5793376 36.970162,28.6233546 37.4526222,28.6233546 C38.6426602,28.6233546 39.5630142,28.4184156 40.2150554,28.0073543 C40.8664109,27.5967664 41.347957,27.1050074 41.659922,26.5330241 C41.9714299,25.9608041 42.1624942,25.3819579 42.2338005,24.794829 C42.3041926,24.2081734 42.3398458,23.7386595 42.3398458,23.3862875 L42.3398458,21.0541006 Z" id="Combined-Shape"></path>
                <path d="M50.3999978,13.6270263 L50.3999978,9.60352931 L53.9379639,9.60352931 L53.9379639,7.90926947 C53.9379639,5.96106425 54.5342277,4.36610503 55.7274267,3.12348079 C56.9204019,1.88131206 58.7244132,1.25999995 61.1383414,1.25999995 C61.6652202,1.25999995 62.1925465,1.28095329 62.7198729,1.32354323 C63.2467517,1.36590542 63.7604248,1.401435 64.2599972,1.42922095 L64.2599972,5.91870206 C63.5659229,5.83397768 62.8449898,5.79161549 62.0956313,5.79161549 C61.2905409,5.79161549 60.7148688,5.98224534 60.368615,6.3632773 C60.0212421,6.74453701 59.8482272,7.38725797 59.8482272,8.29052918 L59.8482272,9.60352931 L63.926949,9.60352931 L63.926949,13.6270263 L59.8482272,13.6270263 L59.8482272,31.4999986 L53.9379639,31.4999986 L53.9379639,13.6270263 L50.3999978,13.6270263 Z" id="Fill-10"></path>
                <path d="M71.1388432,9.41809286 L71.1388432,13.518385 L71.2223291,13.518385 C71.4994217,12.8350795 71.8738771,12.2018448 72.3459193,11.6177622 C72.8175138,11.0345983 73.3584934,10.5359576 73.9690818,10.1227588 C74.5792226,9.71024901 75.231442,9.39007159 75.9255164,9.16176718 C76.6186954,8.93415182 77.3405237,8.81999962 78.0898823,8.81999962 C78.4779909,8.81999962 78.9079544,8.89166056 79.3799965,9.03360435 L79.3799965,14.6716208 C79.1024563,14.6148892 78.7691843,14.5650481 78.3812995,14.5220975 C77.9922956,14.4793766 77.6173925,14.4582458 77.2572617,14.4582458 C76.1750787,14.4582458 75.2596437,14.6435995 74.5102852,15.0133884 C73.7609266,15.3836366 73.1577244,15.8889381 72.699783,16.5295226 C72.2420655,17.1701071 71.9155081,17.9177237 71.7216776,18.7719129 C71.5271757,19.6261021 71.4302604,20.5519523 71.4302604,21.548315 L71.4302604,31.4999986 L65.5199971,31.4999986 L65.5199971,9.41809286 L71.1388432,9.41809286 Z" id="Fill-12"></path>
                <path d="M141.963797,26.5152684 C141.451823,27.0988181 140.810484,27.5692426 140.039552,27.9214208 C139.270678,28.2770906 138.370381,28.4521323 137.340948,28.4521323 C136.013702,28.4521323 134.902673,28.1681551 134.011747,27.5995025 C133.12105,27.0310826 132.675359,26.0690518 132.675359,24.7136428 C132.675359,23.2378926 133.340925,22.1743748 134.668171,21.5303053 C135.998845,20.8827443 137.797382,20.5608259 140.061723,20.5608259 L143.595941,20.5608259 L143.595941,21.9464948 C143.566457,22.836833 143.416522,23.6745657 143.144993,24.4615548 C142.871407,25.2445869 142.479427,25.9314858 141.963797,26.5152684 L141.963797,26.5152684 Z M152.228184,27.8818503 L147.503627,27.8818503 C147.29838,27.8818503 147.13016,27.7126278 147.13016,27.5015071 L147.13016,17.929149 C147.13016,14.8531177 146.43511,12.5603513 145.04501,11.0524791 C143.655138,9.54670183 141.390797,8.81999962 138.250387,8.81999962 L124.739995,8.81999962 C125.307508,9.23968062 125.801197,9.67844861 126.285287,10.1865815 C126.819659,10.7475528 127.302149,11.355776 127.734584,12.0089235 L139.381529,12.0089235 C140.549698,12.1953708 141.496163,12.6883738 142.215212,13.3133563 C143.135622,14.1154754 143.595941,15.2993343 143.595941,16.8674934 L143.595941,17.5131923 L142.235554,17.5131923 C140.938021,17.5131923 139.509065,17.5753414 137.954631,17.6994068 C136.398139,17.823705 134.949071,18.1307263 133.603311,18.6218671 C132.261437,19.1151028 131.133952,19.8681078 130.229999,20.8827443 C129.32056,21.8973807 128.869383,23.2981795 128.869383,25.0846752 C128.869383,26.1293387 129.078515,27.051799 129.501807,27.8515904 C129.9251,28.6537095 130.492385,29.3219869 131.202292,29.8603797 C131.911969,30.3969103 132.743927,30.8070478 133.695878,31.0838091 C134.6476,31.3605705 135.664234,31.4999986 136.753092,31.4999986 C138.385237,31.4999986 139.780823,31.1443289 140.947163,30.4364809 C142.045164,29.7682035 142.934261,28.9209274 143.616283,27.895118 C143.81033,29.9129853 145.494358,31.4979037 147.520311,31.4979037 L153.719993,31.4979037 L152.228184,27.8818503 Z" id="Fill-14"></path>
                <path d="M91.6474484,8.81999962 C92.7526959,8.81999962 93.8714277,8.90117061 95.0050149,9.06209268 C96.1379165,9.22372471 97.1725434,9.53941597 98.1075243,10.0084565 C99.0425052,10.4779703 99.807448,11.1304147 100.402581,11.9667362 C100.997486,12.8028211 101.295053,13.9105802 101.295053,15.2890672 L101.295053,27.1272525 C101.295053,28.1545507 101.351504,29.137122 101.464862,30.0756763 C101.578221,31.0149406 101.77637,31.7189747 102.059996,32.1880152 L95.9399958,32.1880152 C95.8266371,31.8361165 95.7343046,31.4768816 95.664141,31.1098373 C95.5928347,30.7432663 95.5430118,30.3691225 95.5151292,29.9876425 C94.5518086,31.0149406 93.4182213,31.7334104 92.1150531,32.1437617 C90.8116564,32.5545863 89.4799199,32.7599986 88.1200723,32.7599986 C87.0717327,32.7599986 86.0942423,32.6279478 85.187601,32.3640829 C84.2805027,32.0999814 83.4874488,31.6893935 82.807525,31.1318458 C82.1276012,30.5747714 81.5962322,29.8707373 81.2141036,29.0192702 C80.8315179,28.1687497 80.6399965,27.1568338 80.6399965,25.9830492 C80.6399965,24.6921228 80.8594005,23.6286172 81.2991226,22.7925324 C81.737702,21.9564475 82.3042671,21.2893308 82.9988178,20.7899991 C83.6929114,20.291614 84.4864225,19.9174701 85.3791224,19.6678042 C86.2713653,19.419085 87.170693,19.2210088 88.0775628,19.0738125 C88.9842041,18.927326 89.8764469,18.8097109 90.7552056,18.7219137 C91.63305,18.6336432 92.4126198,18.5018291 93.0925436,18.3257614 C93.7724674,18.1496938 94.3106927,17.893165 94.7076768,17.5554653 C95.1039752,17.2187122 95.2881832,16.7269533 95.260072,16.0813718 C95.260072,15.4069189 95.1540268,14.8711431 94.9414792,14.4749908 C94.7289316,14.0788385 94.4453062,13.7709567 94.0912888,13.5508721 C93.7365857,13.3307875 93.3263459,13.184301 92.8587412,13.1109395 C92.391365,13.0378146 91.8881071,13.0008972 91.3503388,13.0008972 C90.1603008,13.0008972 89.2250913,13.2647621 88.5451676,13.7929651 C87.8652438,14.3209315 87.4678026,15.20127 87.3551295,16.4332705 L81.3199203,16.4332705 C81.4051679,14.9665131 81.7591853,13.7489482 82.3826583,12.7808126 C83.0054456,11.812677 83.7989567,11.035518 84.7625058,10.4483891 C85.7255979,9.86197007 86.8091336,9.44357267 88.0140271,9.19414345 C89.2180064,8.94542418 90.4290707,8.81999962 91.6474484,8.81999962 Z M95.260072,21.0541006 C95.0050149,21.2893308 94.686422,21.4722614 94.3038364,21.6043121 C93.9214792,21.7363629 93.5103253,21.8464052 93.0712888,21.9344391 C92.6317952,22.0222362 92.1715039,22.0958344 91.6899579,22.1540504 C91.2081833,22.2134495 90.7268659,22.2863378 90.2450913,22.3743716 C89.7914279,22.4624055 89.3453064,22.5797839 88.9064985,22.7262703 C88.4667763,22.8734667 88.0844192,23.0715429 87.75897,23.3204988 C87.4328351,23.5701646 87.170693,23.8858559 86.9727724,24.2666259 C86.7741661,24.6483426 86.6752057,25.1322921 86.6752057,25.7189477 C86.6752057,26.2764954 86.7741661,26.7462458 86.9727724,27.1272525 C87.170693,27.5087325 87.4401486,27.8092782 87.7802247,28.0293628 C88.1200723,28.2494474 88.5165993,28.4035066 88.9702628,28.4915404 C89.423012,28.5793376 89.8903882,28.6233546 90.3728484,28.6233546 C91.5626579,28.6233546 92.4832404,28.4184156 93.1350531,28.0073543 C93.7866372,27.5967664 94.2679547,27.1050074 94.5801482,26.5330241 C94.8916562,25.9608041 95.0827205,25.3819579 95.1540268,24.794829 C95.2241903,24.2081734 95.260072,23.7386595 95.260072,23.3862875 L95.260072,21.0541006 Z" id="Combined-Shape"></path>
            </g>
        </g>
    </g>
</svg>